<svg width="157" height="142" viewBox="0 0 157 142" fill="none" xmlns="http://www.w3.org/2000/svg">
<ellipse cx="78.5" cy="71" rx="78.5" ry="71" fill="#F9FAFC"/>
<g clip-path="url(#clip0_305_8126)">
<path d="M79.2353 77.8544C68.4954 77.8544 57.7555 77.7528 47.0156 77.9116C43.6462 77.9625 41.9424 76.7741 41.234 73.4632C40.0662 68.0933 38.5857 62.7807 37.2584 57.4426C36.5756 54.6845 35.9439 52.06 33.5764 49.9502C31.3237 47.942 31.63 44.4341 33.6146 42.1591C34.517 41.0979 35.7668 40.3884 37.1435 40.1558C38.5202 39.9233 39.935 40.1826 41.1383 40.8881C43.7674 42.3497 45.1714 45.5208 43.8249 48.2026C42.7783 50.2933 43.3527 51.4436 44.8651 52.7717C46.537 54.2397 47.9728 55.981 49.6639 57.4235C53.9075 61.0649 59.7529 60.5692 63.2307 56.197C66.7086 51.8249 70.0142 47.2303 73.441 42.7818C73.8482 42.3105 74.1076 41.7304 74.187 41.1137C74.2664 40.4969 74.1623 39.8705 73.8877 39.3121C72.8858 36.5795 73.4155 34.0248 75.8787 32.2328C76.8502 31.4645 78.0453 31.0301 79.2854 30.9946C80.5254 30.959 81.7436 31.3243 82.7578 32.0358C85.3806 33.6817 86.0187 36.2236 85.1764 38.9816C84.634 40.7546 85.0488 41.9875 86.0889 43.3411C89.1839 47.3828 92.164 51.5135 95.259 55.5488C99.3304 60.8551 105.348 61.2682 110.147 56.7118C111.142 55.7585 112.061 54.71 113.095 53.8139C115.092 52.0791 116.567 50.5158 114.958 47.4591C113.765 45.184 115.501 42.1336 117.945 40.8309C119.163 40.1513 120.582 39.9208 121.953 40.18C123.324 40.4392 124.56 41.1714 125.443 42.2481C127.313 44.485 127.657 47.8467 125.52 49.7977C123.095 52.0092 122.527 54.7799 121.812 57.6269C120.536 62.7616 119.259 67.8942 117.983 73.0247C116.924 77.2062 116.235 77.7655 111.793 77.7782C100.945 77.7782 90.0964 77.7782 79.248 77.7782L79.2353 77.8544Z" fill="#FDB64E"/>
<path d="M79.7394 94.9923H49.1533C42.9123 94.9923 42.3061 94.3568 42.3444 88.0019C42.326 87.1536 42.3558 86.3049 42.4337 85.4599C42.477 84.661 42.8035 83.9033 43.355 83.3215C43.9065 82.7397 44.6473 82.3716 45.4457 82.2825C46.5014 82.1214 47.5685 82.047 48.6364 82.0601C69.3462 82.0601 90.0539 82.0601 110.759 82.0601C116.101 82.0601 116.771 82.7591 116.783 88.1099V89.0632C116.783 94.2805 116.113 94.9732 110.976 94.9795L79.7394 94.9923Z" fill="#FDB64E"/>
</g>
<defs>
<clipPath id="clip0_305_8126">
<rect width="95" height="64" fill="white" transform="translate(32 31)"/>
</clipPath>
</defs>
</svg>
